<svg version="1.1" xmlns="http://www.w3.org/2000/svg" xmlns:xlink="http://www.w3.org/1999/xlink" width="1200" height="379"><defs><linearGradient id="VSbCXKXManpd" x1="0px" x2="32px" y1="0px" y2="0px" gradientUnits="userSpaceOnUse"><stop offset="0" stop-color="#808080"/><stop offset="1" stop-color="#808080"/></linearGradient><linearGradient id="WZDyROVNNinP" x1="0px" x2="32px" y1="0px" y2="0px" gradientUnits="userSpaceOnUse"><stop offset="0" stop-color="#00ffff"/><stop offset="1" stop-color="#00ffff"/></linearGradient><linearGradient id="wKixxCZmtGQK" x1="0px" x2="32px" y1="0px" y2="0px" gradientUnits="userSpaceOnUse"><stop offset="0" stop-color="#808080"/><stop offset="1" stop-color="#808080"/></linearGradient><linearGradient id="VDmQZgxlRVrn" x1="0px" x2="32px" y1="0px" y2="0px" gradientUnits="userSpaceOnUse"><stop offset="0" stop-color="#808080"/><stop offset="1" stop-color="#808080"/></linearGradient><linearGradient id="RTemyrJPJzWx" x1="0px" x2="32px" y1="0px" y2="0px" gradientUnits="userSpaceOnUse"><stop offset="0" stop-color="#00ffff"/><stop offset="1" stop-color="#00ffff"/></linearGradient><linearGradient id="oXNrzizIgQMJ" x1="0px" x2="48px" y1="0px" y2="0px" gradientUnits="userSpaceOnUse"><stop offset="0" stop-color="#00ffff"/><stop offset="1" stop-color="#00ffff"/></linearGradient><linearGradient id="GALIiTXaWggl" x1="0px" x2="48px" y1="0px" y2="0px" gradientUnits="userSpaceOnUse"><stop offset="0" stop-color="#00ffff"/><stop offset="1" stop-color="#00ffff"/></linearGradient><linearGradient id="LUmMrBUcOfax" x1="0px" x2="32px" y1="0px" y2="0px" gradientUnits="userSpaceOnUse"><stop offset="0" stop-color="#00ffff"/><stop offset="1" stop-color="#00ffff"/></linearGradient></defs><g><rect fill="#000000" stroke="none" x="0" y="0" width="1200" height="379"/><g transform="scale(1,1) translate(37,-119)"><path fill="none" stroke="#00ffff" paint-order="fill stroke markers" d=" M 432 320 L 494 320" stroke-linecap="round" stroke-miterlimit="10" stroke-width="3" stroke-dasharray=""/><path fill="none" stroke="#00ffff" paint-order="fill stroke markers" d=" M 432 352 L 494 352" stroke-linecap="round" stroke-miterlimit="10" stroke-width="3" stroke-dasharray=""/><path fill="none" stroke="#00ffff" paint-order="fill stroke markers" d=" M 546 336 L 608 336" stroke-linecap="round" stroke-miterlimit="10" stroke-width="3" stroke-dasharray=""/><path fill="none" stroke="#00ffff" paint-order="fill stroke markers" d=" M 494 304 L 494 368 L 546 336 Z" stroke-linecap="round" stroke-miterlimit="10" stroke-width="3" stroke-dasharray=""/><g><text fill="#00ffff" stroke="none" font-family="sans-serif" font-size="14px" font-style="normal" font-weight="normal" text-decoration="normal" x="504" y="318" text-anchor="middle" dominant-baseline="central">-</text></g><g><text fill="#00ffff" stroke="none" font-family="sans-serif" font-size="14px" font-style="normal" font-weight="normal" text-decoration="normal" x="504" y="352" text-anchor="middle" dominant-baseline="central">+</text></g><path fill="#ffffff" stroke="none" paint-order="stroke fill markers" d=" M 435 320 A 3 3 0 1 1 434.99999999995777 319.99998407846124 Z"/><path fill="#ffffff" stroke="none" paint-order="stroke fill markers" d=" M 435 352 A 3 3 0 1 1 434.99999999995777 351.99998407846124 Z"/><path fill="#ffffff" stroke="none" paint-order="stroke fill markers" d=" M 611 336 A 3 3 0 1 1 610.9999999999577 335.99998407846124 Z"/><g><text fill="#00ffff" stroke="none" font-family="sans-serif" font-size="11px" font-style="normal" font-weight="normal" text-decoration="normal" x="498" y="339" text-anchor="start" dominant-baseline="alphabetic">LM358</text></g><path fill="none" stroke="#808080" paint-order="fill stroke markers" d=" M 928 240 L 896 240" stroke-linecap="round" stroke-miterlimit="10" stroke-width="3" stroke-dasharray=""/><path fill="none" stroke="#808080" paint-order="fill stroke markers" d=" M 864 240 L 832 240" stroke-linecap="round" stroke-miterlimit="10" stroke-width="3" stroke-dasharray=""/><g transform="matrix(-1,0,0,-1,896,240)"><path fill="none" stroke="url(#VSbCXKXManpd)" paint-order="fill stroke markers" d=" M 0 0 L 2 6 L 6 -6 L 10 6 L 14 -6 L 18 6 L 22 -6 L 26 6 L 30 -6 L 32 0" stroke-linecap="round" stroke-miterlimit="10" stroke-width="3" stroke-dasharray=""/></g><text fill="#ffffff" stroke="none" font-family="sans-serif" font-size="12px" font-style="normal" font-weight="normal" text-decoration="normal" x="874" y="230" text-anchor="start" dominant-baseline="alphabetic">1k</text><path fill="none" stroke="#808080" paint-order="fill stroke markers" d=" M 688 240 L 608 240" stroke-linecap="round" stroke-miterlimit="10" stroke-width="3" stroke-dasharray=""/><text fill="#ffffff" stroke="none" font-family="sans-serif" font-size="12px" font-style="normal" font-weight="normal" text-decoration="normal" x="648" y="234" text-anchor="start" dominant-baseline="alphabetic"></text><path fill="none" stroke="#00ffff" paint-order="fill stroke markers" d=" M 528 240 L 528 320" stroke-linecap="round" stroke-miterlimit="10" stroke-width="3" stroke-dasharray=""/><text fill="#ffffff" stroke="none" font-family="sans-serif" font-size="12px" font-style="normal" font-weight="normal" text-decoration="normal" x="534" y="286" text-anchor="start" dominant-baseline="alphabetic"></text><path fill="#ffffff" stroke="none" paint-order="stroke fill markers" d=" M 531 240 A 3 3 0 1 1 530.9999999999577 239.99998407846124 Z"/><path fill="#ffffff" stroke="none" paint-order="stroke fill markers" d=" M 531 320 A 3 3 0 1 1 530.9999999999577 319.99998407846124 Z"/><path fill="none" stroke="#00ffff" paint-order="fill stroke markers" d=" M 528 352 L 528 448" stroke-linecap="round" stroke-miterlimit="10" stroke-width="3" stroke-dasharray=""/><path fill="none" stroke="#00ffff" paint-order="fill stroke markers" d=" M 538 448 L 518 448" stroke-linecap="round" stroke-miterlimit="10" stroke-width="3" stroke-dasharray=""/><path fill="none" stroke="#00ffff" paint-order="fill stroke markers" d=" M 534 453 L 522 453" stroke-linecap="round" stroke-miterlimit="10" stroke-width="3" stroke-dasharray=""/><path fill="none" stroke="#00ffff" paint-order="fill stroke markers" d=" M 530 458 L 526 458" stroke-linecap="round" stroke-miterlimit="10" stroke-width="3" stroke-dasharray=""/><path fill="#ffffff" stroke="none" paint-order="stroke fill markers" d=" M 531 352 A 3 3 0 1 1 530.9999999999577 351.99998407846124 Z"/><path fill="none" stroke="#00ffff" paint-order="fill stroke markers" d=" M 400 352 L 400 448" stroke-linecap="round" stroke-miterlimit="10" stroke-width="3" stroke-dasharray=""/><path fill="none" stroke="#00ffff" paint-order="fill stroke markers" d=" M 410 448 L 390 448" stroke-linecap="round" stroke-miterlimit="10" stroke-width="3" stroke-dasharray=""/><path fill="none" stroke="#00ffff" paint-order="fill stroke markers" d=" M 406 453 L 394 453" stroke-linecap="round" stroke-miterlimit="10" stroke-width="3" stroke-dasharray=""/><path fill="none" stroke="#00ffff" paint-order="fill stroke markers" d=" M 402 458 L 398 458" stroke-linecap="round" stroke-miterlimit="10" stroke-width="3" stroke-dasharray=""/><path fill="#ffffff" stroke="none" paint-order="stroke fill markers" d=" M 403 352 A 3 3 0 1 1 402.99999999995777 351.99998407846124 Z"/><path fill="none" stroke="#00ffff" paint-order="fill stroke markers" d=" M 400 320 L 400 296" stroke-linecap="round" stroke-miterlimit="10" stroke-width="3" stroke-dasharray=""/><path fill="none" stroke="#00ffff" paint-order="fill stroke markers" d=" M 400 264 L 400 240" stroke-linecap="round" stroke-miterlimit="10" stroke-width="3" stroke-dasharray=""/><g transform="matrix(0,-1,1,0,400,296)"><path fill="none" stroke="url(#WZDyROVNNinP)" paint-order="fill stroke markers" d=" M 0 0 L 2 6 L 6 -6 L 10 6 L 14 -6 L 18 6 L 22 -6 L 26 6 L 30 -6 L 32 0" stroke-linecap="round" stroke-miterlimit="10" stroke-width="3" stroke-dasharray=""/></g><text fill="#ffffff" stroke="none" font-family="sans-serif" font-size="12px" font-style="normal" font-weight="normal" text-decoration="normal" x="410" y="286" text-anchor="start" dominant-baseline="alphabetic">12k</text><path fill="#ffffff" stroke="none" paint-order="stroke fill markers" d=" M 403 320 A 3 3 0 1 1 402.99999999995777 319.99998407846124 Z"/><path fill="#ffffff" stroke="none" paint-order="stroke fill markers" d=" M 403 240 A 3 3 0 1 1 402.99999999995777 239.99998407846124 Z"/><path fill="none" stroke="#808080" paint-order="fill stroke markers" d=" M 688 240 L 688 272" stroke-linecap="round" stroke-miterlimit="10" stroke-width="3" stroke-dasharray=""/><path fill="none" stroke="#808080" paint-order="fill stroke markers" d=" M 688 304 L 688 336" stroke-linecap="round" stroke-miterlimit="10" stroke-width="3" stroke-dasharray=""/><g transform="matrix(0,1,-1,0,688,272)"><path fill="none" stroke="url(#wKixxCZmtGQK)" paint-order="fill stroke markers" d=" M 0 0 L 2 6 L 6 -6 L 10 6 L 14 -6 L 18 6 L 22 -6 L 26 6 L 30 -6 L 32 0" stroke-linecap="round" stroke-miterlimit="10" stroke-width="3" stroke-dasharray=""/></g><text fill="#ffffff" stroke="none" font-family="sans-serif" font-size="12px" font-style="normal" font-weight="normal" text-decoration="normal" x="698" y="294" text-anchor="start" dominant-baseline="alphabetic">100k</text><path fill="none" stroke="#808080" paint-order="fill stroke markers" d=" M 688 336 L 688 352" stroke-linecap="round" stroke-miterlimit="10" stroke-width="3" stroke-dasharray=""/><path fill="none" stroke="#808080" paint-order="fill stroke markers" d=" M 688 384 L 688 400" stroke-linecap="round" stroke-miterlimit="10" stroke-width="3" stroke-dasharray=""/><g transform="matrix(0,1,-1,0,688,352)"><path fill="none" stroke="url(#VDmQZgxlRVrn)" paint-order="fill stroke markers" d=" M 0 0 L 2 6 L 6 -6 L 10 6 L 14 -6 L 18 6 L 22 -6 L 26 6 L 30 -6 L 32 0" stroke-linecap="round" stroke-miterlimit="10" stroke-width="3" stroke-dasharray=""/></g><text fill="#ffffff" stroke="none" font-family="sans-serif" font-size="12px" font-style="normal" font-weight="normal" text-decoration="normal" x="698" y="374" text-anchor="start" dominant-baseline="alphabetic">100k</text><path fill="none" stroke="#808080" paint-order="fill stroke markers" d=" M 688 400 L 688 448" stroke-linecap="round" stroke-miterlimit="10" stroke-width="3" stroke-dasharray=""/><path fill="none" stroke="#808080" paint-order="fill stroke markers" d=" M 698 448 L 678 448" stroke-linecap="round" stroke-miterlimit="10" stroke-width="3" stroke-dasharray=""/><path fill="none" stroke="#808080" paint-order="fill stroke markers" d=" M 694 453 L 682 453" stroke-linecap="round" stroke-miterlimit="10" stroke-width="3" stroke-dasharray=""/><path fill="none" stroke="#808080" paint-order="fill stroke markers" d=" M 690 458 L 686 458" stroke-linecap="round" stroke-miterlimit="10" stroke-width="3" stroke-dasharray=""/><path fill="none" stroke="#808080" paint-order="fill stroke markers" d=" M 432 192 L 516 192" stroke-linecap="round" stroke-miterlimit="10" stroke-width="3" stroke-dasharray=""/><path fill="none" stroke="#808080" paint-order="fill stroke markers" d=" M 516 180 L 516 204" stroke-linecap="round" stroke-miterlimit="10" stroke-width="3" stroke-dasharray=""/><path fill="none" stroke="#808080" paint-order="fill stroke markers" d=" M 608 192 L 524 192" stroke-linecap="round" stroke-miterlimit="10" stroke-width="3" stroke-dasharray=""/><path fill="none" stroke="#808080" paint-order="fill stroke markers" d=" M 524 180 L 524 204" stroke-linecap="round" stroke-miterlimit="10" stroke-width="3" stroke-dasharray=""/><text fill="#ffffff" stroke="none" font-family="sans-serif" font-size="12px" font-style="normal" font-weight="normal" text-decoration="normal" x="507" y="178" text-anchor="start" dominant-baseline="alphabetic">10nF</text><path fill="none" stroke="#808080" paint-order="fill stroke markers" d=" M 608 192 L 608 336" stroke-linecap="round" stroke-miterlimit="10" stroke-width="3" stroke-dasharray=""/><text fill="#ffffff" stroke="none" font-family="sans-serif" font-size="12px" font-style="normal" font-weight="normal" text-decoration="normal" x="614" y="270" text-anchor="start" dominant-baseline="alphabetic"></text><path fill="none" stroke="#00ffff" paint-order="fill stroke markers" d=" M 432 192 L 432 320" stroke-linecap="round" stroke-miterlimit="10" stroke-width="3" stroke-dasharray=""/><text fill="#ffffff" stroke="none" font-family="sans-serif" font-size="12px" font-style="normal" font-weight="normal" text-decoration="normal" x="438" y="262" text-anchor="start" dominant-baseline="alphabetic"></text><path fill="#ffffff" stroke="none" paint-order="stroke fill markers" d=" M 435 192 A 3 3 0 1 1 434.99999999995777 191.99998407846124 Z"/><path fill="#ffffff" stroke="none" paint-order="stroke fill markers" d=" M 435 320 A 3 3 0 1 1 434.99999999995777 319.99998407846124 Z"/><path fill="none" stroke="#808080" paint-order="fill stroke markers" d=" M 608 336 L 644 336" stroke-linecap="round" stroke-miterlimit="10" stroke-width="3" stroke-dasharray=""/><path fill="none" stroke="#808080" paint-order="fill stroke markers" d=" M 644 324 L 644 348" stroke-linecap="round" stroke-miterlimit="10" stroke-width="3" stroke-dasharray=""/><path fill="none" stroke="#808080" paint-order="fill stroke markers" d=" M 688 336 L 652 336" stroke-linecap="round" stroke-miterlimit="10" stroke-width="3" stroke-dasharray=""/><path fill="none" stroke="#808080" paint-order="fill stroke markers" d=" M 652 324 L 652 348" stroke-linecap="round" stroke-miterlimit="10" stroke-width="3" stroke-dasharray=""/><text fill="#ffffff" stroke="none" font-family="sans-serif" font-size="12px" font-style="normal" font-weight="normal" text-decoration="normal" x="631" y="322" text-anchor="start" dominant-baseline="alphabetic">100nF</text><path fill="none" stroke="#808080" paint-order="fill stroke markers" d=" M 528 240 L 608 240" stroke-linecap="round" stroke-miterlimit="10" stroke-width="3" stroke-dasharray=""/><text fill="#ffffff" stroke="none" font-family="sans-serif" font-size="12px" font-style="normal" font-weight="normal" text-decoration="normal" x="568" y="234" text-anchor="start" dominant-baseline="alphabetic"></text><path fill="none" stroke="#808080" paint-order="fill stroke markers" d=" M 432 240 L 528 240" stroke-linecap="round" stroke-miterlimit="10" stroke-width="3" stroke-dasharray=""/><text fill="#ffffff" stroke="none" font-family="sans-serif" font-size="12px" font-style="normal" font-weight="normal" text-decoration="normal" x="480" y="234" text-anchor="start" dominant-baseline="alphabetic"></text><path fill="none" stroke="#00ffff" paint-order="fill stroke markers" d=" M 400 320 L 432 320" stroke-linecap="round" stroke-miterlimit="10" stroke-width="3" stroke-dasharray=""/><text fill="#ffffff" stroke="none" font-family="sans-serif" font-size="12px" font-style="normal" font-weight="normal" text-decoration="normal" x="416" y="314" text-anchor="start" dominant-baseline="alphabetic"></text><path fill="#ffffff" stroke="none" paint-order="stroke fill markers" d=" M 403 320 A 3 3 0 1 1 402.99999999995777 319.99998407846124 Z"/><path fill="#ffffff" stroke="none" paint-order="stroke fill markers" d=" M 435 320 A 3 3 0 1 1 434.99999999995777 319.99998407846124 Z"/><path fill="none" stroke="#808080" paint-order="fill stroke markers" d=" M 400 240 L 432 240" stroke-linecap="round" stroke-miterlimit="10" stroke-width="3" stroke-dasharray=""/><text fill="#ffffff" stroke="none" font-family="sans-serif" font-size="12px" font-style="normal" font-weight="normal" text-decoration="normal" x="416" y="234" text-anchor="start" dominant-baseline="alphabetic"></text><path fill="none" stroke="#00ffff" paint-order="fill stroke markers" d=" M 400 352 L 432 352" stroke-linecap="round" stroke-miterlimit="10" stroke-width="3" stroke-dasharray=""/><text fill="#ffffff" stroke="none" font-family="sans-serif" font-size="12px" font-style="normal" font-weight="normal" text-decoration="normal" x="416" y="346" text-anchor="start" dominant-baseline="alphabetic"></text><path fill="#ffffff" stroke="none" paint-order="stroke fill markers" d=" M 403 352 A 3 3 0 1 1 402.99999999995777 351.99998407846124 Z"/><path fill="#ffffff" stroke="none" paint-order="stroke fill markers" d=" M 435 352 A 3 3 0 1 1 434.99999999995777 351.99998407846124 Z"/><path fill="none" stroke="#808080" paint-order="fill stroke markers" d=" M 832 240 L 832 268" stroke-linecap="round" stroke-miterlimit="10" stroke-width="3" stroke-dasharray=""/><path fill="none" stroke="#808080" paint-order="fill stroke markers" d=" M 844 268 L 820 268" stroke-linecap="round" stroke-miterlimit="10" stroke-width="3" stroke-dasharray=""/><path fill="none" stroke="#808080" paint-order="fill stroke markers" d=" M 832 304 L 832 276" stroke-linecap="round" stroke-miterlimit="10" stroke-width="3" stroke-dasharray=""/><path fill="none" stroke="#808080" paint-order="fill stroke markers" d=" M 844 279 L 842 278" stroke-linecap="round" stroke-miterlimit="10" stroke-width="3" stroke-dasharray=""/><path fill="none" stroke="#808080" paint-order="fill stroke markers" d=" M 842 278 L 840 277" stroke-linecap="round" stroke-miterlimit="10" stroke-width="3" stroke-dasharray=""/><path fill="none" stroke="#808080" paint-order="fill stroke markers" d=" M 840 277 L 838 277" stroke-linecap="round" stroke-miterlimit="10" stroke-width="3" stroke-dasharray=""/><path fill="none" stroke="#808080" paint-order="fill stroke markers" d=" M 838 277 L 837 276" stroke-linecap="round" stroke-miterlimit="10" stroke-width="3" stroke-dasharray=""/><path fill="none" stroke="#808080" paint-order="fill stroke markers" d=" M 837 276 L 835 276" stroke-linecap="round" stroke-miterlimit="10" stroke-width="3" stroke-dasharray=""/><path fill="none" stroke="#808080" paint-order="fill stroke markers" d=" M 835 276 L 833 276" stroke-linecap="round" stroke-miterlimit="10" stroke-width="3" stroke-dasharray=""/><path fill="none" stroke="#808080" paint-order="fill stroke markers" d=" M 833 276 L 831 276" stroke-linecap="round" stroke-miterlimit="10" stroke-width="3" stroke-dasharray=""/><path fill="none" stroke="#808080" paint-order="fill stroke markers" d=" M 831 276 L 829 276" stroke-linecap="round" stroke-miterlimit="10" stroke-width="3" stroke-dasharray=""/><path fill="none" stroke="#808080" paint-order="fill stroke markers" d=" M 829 276 L 827 276" stroke-linecap="round" stroke-miterlimit="10" stroke-width="3" stroke-dasharray=""/><path fill="none" stroke="#808080" paint-order="fill stroke markers" d=" M 827 276 L 826 277" stroke-linecap="round" stroke-miterlimit="10" stroke-width="3" stroke-dasharray=""/><path fill="none" stroke="#808080" paint-order="fill stroke markers" d=" M 826 277 L 824 277" stroke-linecap="round" stroke-miterlimit="10" stroke-width="3" stroke-dasharray=""/><path fill="none" stroke="#808080" paint-order="fill stroke markers" d=" M 824 277 L 822 278" stroke-linecap="round" stroke-miterlimit="10" stroke-width="3" stroke-dasharray=""/><path fill="none" stroke="#808080" paint-order="fill stroke markers" d=" M 822 278 L 820 279" stroke-linecap="round" stroke-miterlimit="10" stroke-width="3" stroke-dasharray=""/><text fill="#ffffff" stroke="none" font-family="sans-serif" font-size="12px" font-style="normal" font-weight="normal" text-decoration="normal" x="846" y="278" text-anchor="start" dominant-baseline="alphabetic">100μF</text><text fill="#ffffff" stroke="none" font-family="sans-serif" font-size="12px" font-style="normal" font-weight="normal" text-decoration="normal" x="819" y="264" text-anchor="start" dominant-baseline="alphabetic">+</text><path fill="none" stroke="#808080" paint-order="fill stroke markers" d=" M 816 240 L 832 240" stroke-linecap="round" stroke-miterlimit="10" stroke-width="3" stroke-dasharray=""/><text fill="#ffffff" stroke="none" font-family="sans-serif" font-size="12px" font-style="normal" font-weight="normal" text-decoration="normal" x="824" y="234" text-anchor="start" dominant-baseline="alphabetic"></text><path fill="none" stroke="#808080" paint-order="fill stroke markers" d=" M 816 240 L 688 240" stroke-linecap="round" stroke-miterlimit="10" stroke-width="3" stroke-dasharray=""/><text fill="#ffffff" stroke="none" font-family="sans-serif" font-size="12px" font-style="normal" font-weight="normal" text-decoration="normal" x="752" y="234" text-anchor="start" dominant-baseline="alphabetic"></text><path fill="none" stroke="#808080" paint-order="fill stroke markers" d=" M 832 304 L 832 320" stroke-linecap="round" stroke-miterlimit="10" stroke-width="3" stroke-dasharray=""/><path fill="none" stroke="#808080" paint-order="fill stroke markers" d=" M 842 320 L 822 320" stroke-linecap="round" stroke-miterlimit="10" stroke-width="3" stroke-dasharray=""/><path fill="none" stroke="#808080" paint-order="fill stroke markers" d=" M 838 325 L 826 325" stroke-linecap="round" stroke-miterlimit="10" stroke-width="3" stroke-dasharray=""/><path fill="none" stroke="#808080" paint-order="fill stroke markers" d=" M 834 330 L 830 330" stroke-linecap="round" stroke-miterlimit="10" stroke-width="3" stroke-dasharray=""/><path fill="none" stroke="#808080" paint-order="fill stroke markers" d=" M 928 240 L 943 240" stroke-linecap="round" stroke-miterlimit="10" stroke-width="3" stroke-dasharray=""/><g><text fill="#ffffff" stroke="none" font-family="sans-serif" font-size="12px" font-style="normal" font-weight="normal" text-decoration="normal" x="947" y="240" text-anchor="start" dominant-baseline="central">+5V</text></g><path fill="none" stroke="#00ffff" paint-order="fill stroke markers" d=" M 400 320 L 376 320" stroke-linecap="round" stroke-miterlimit="10" stroke-width="3" stroke-dasharray=""/><path fill="none" stroke="#00ffff" paint-order="fill stroke markers" d=" M 344 320 L 320 320" stroke-linecap="round" stroke-miterlimit="10" stroke-width="3" stroke-dasharray=""/><g transform="matrix(-1,0,0,-1,376,320)"><path fill="none" stroke="url(#RTemyrJPJzWx)" paint-order="fill stroke markers" d=" M 0 0 L 2 6 L 6 -6 L 10 6 L 14 -6 L 18 6 L 22 -6 L 26 6 L 30 -6 L 32 0" stroke-linecap="round" stroke-miterlimit="10" stroke-width="3" stroke-dasharray=""/></g><text fill="#ffffff" stroke="none" font-family="sans-serif" font-size="12px" font-style="normal" font-weight="normal" text-decoration="normal" x="354" y="310" text-anchor="start" dominant-baseline="alphabetic">1k</text><path fill="#ffffff" stroke="none" paint-order="stroke fill markers" d=" M 403 320 A 3 3 0 1 1 402.99999999995777 319.99998407846124 Z"/><path fill="#ffffff" stroke="none" paint-order="stroke fill markers" d=" M 323 320 A 3 3 0 1 1 322.99999999995777 319.99998407846124 Z"/><path fill="none" stroke="#00ffff" paint-order="fill stroke markers" d=" M 128 320 L 173 320" stroke-linecap="round" stroke-miterlimit="10" stroke-width="3" stroke-dasharray=""/><path fill="none" stroke="#00ffff" paint-order="fill stroke markers" d=" M 240 320 L 195 320" stroke-linecap="round" stroke-miterlimit="10" stroke-width="3" stroke-dasharray=""/><path fill="none" stroke="#00ffff" paint-order="fill stroke markers" d=" M 128 368 L 173 368" stroke-linecap="round" stroke-miterlimit="10" stroke-width="3" stroke-dasharray=""/><path fill="none" stroke="#00ffff" paint-order="fill stroke markers" d=" M 240 368 L 195 368" stroke-linecap="round" stroke-miterlimit="10" stroke-width="3" stroke-dasharray=""/><g transform="matrix(0,1,-1,0,173,320) scale(1,1)"><path fill="none" stroke="url(#oXNrzizIgQMJ)" paint-order="fill stroke markers" d=" M 0 0 L 0 5.878304635907295e-16 A 4.8 4.8 0 0 1 9.6 0 L 9.6 0" stroke-linecap="round" stroke-miterlimit="10" stroke-width="3" stroke-dasharray=""/><path fill="none" stroke="url(#oXNrzizIgQMJ)" paint-order="fill stroke markers" d=" M 9.6 0 L 9.600000000000001 5.878304635907295e-16 A 4.8 4.8 0 0 1 19.2 0 L 19.2 0" stroke-linecap="round" stroke-miterlimit="10" stroke-width="3" stroke-dasharray=""/><path fill="none" stroke="url(#oXNrzizIgQMJ)" paint-order="fill stroke markers" d=" M 19.2 0 L 19.2 5.878304635907295e-16 A 4.8 4.8 0 0 1 28.8 0 L 28.8 0" stroke-linecap="round" stroke-miterlimit="10" stroke-width="3" stroke-dasharray=""/><path fill="none" stroke="url(#oXNrzizIgQMJ)" paint-order="fill stroke markers" d=" M 28.8 0 L 28.8 5.878304635907295e-16 A 4.8 4.8 0 0 1 38.4 0 L 38.4 0" stroke-linecap="round" stroke-miterlimit="10" stroke-width="3" stroke-dasharray=""/><path fill="none" stroke="url(#oXNrzizIgQMJ)" paint-order="fill stroke markers" d=" M 38.4 0 L 38.400000000000006 5.878304635907295e-16 A 4.8 4.8 0 0 1 48 0 L 48 0" stroke-linecap="round" stroke-miterlimit="10" stroke-width="3" stroke-dasharray=""/></g><g transform="matrix(0,1,-1,0,195,320) scale(1,-1)"><path fill="none" stroke="url(#GALIiTXaWggl)" paint-order="fill stroke markers" d=" M 0 0 L 0 5.878304635907295e-16 A 4.8 4.8 0 0 1 9.6 0 L 9.6 0" stroke-linecap="round" stroke-miterlimit="10" stroke-width="3" stroke-dasharray=""/><path fill="none" stroke="url(#GALIiTXaWggl)" paint-order="fill stroke markers" d=" M 9.6 0 L 9.600000000000001 5.878304635907295e-16 A 4.8 4.8 0 0 1 19.2 0 L 19.2 0" stroke-linecap="round" stroke-miterlimit="10" stroke-width="3" stroke-dasharray=""/><path fill="none" stroke="url(#GALIiTXaWggl)" paint-order="fill stroke markers" d=" M 19.2 0 L 19.2 5.878304635907295e-16 A 4.8 4.8 0 0 1 28.8 0 L 28.8 0" stroke-linecap="round" stroke-miterlimit="10" stroke-width="3" stroke-dasharray=""/><path fill="none" stroke="url(#GALIiTXaWggl)" paint-order="fill stroke markers" d=" M 28.8 0 L 28.8 5.878304635907295e-16 A 4.8 4.8 0 0 1 38.4 0 L 38.4 0" stroke-linecap="round" stroke-miterlimit="10" stroke-width="3" stroke-dasharray=""/><path fill="none" stroke="url(#GALIiTXaWggl)" paint-order="fill stroke markers" d=" M 38.4 0 L 38.400000000000006 5.878304635907295e-16 A 4.8 4.8 0 0 1 48 0 L 48 0" stroke-linecap="round" stroke-miterlimit="10" stroke-width="3" stroke-dasharray=""/></g><path fill="none" stroke="#00ffff" paint-order="fill stroke markers" d=" M 182 320 L 182 368" stroke-linecap="round" stroke-miterlimit="10" stroke-width="3" stroke-dasharray=""/><path fill="none" stroke="#00ffff" paint-order="fill stroke markers" d=" M 186 320 L 186 368" stroke-linecap="round" stroke-miterlimit="10" stroke-width="3" stroke-dasharray=""/><path fill="#ffffff" stroke="none" paint-order="stroke fill markers" d=" M 131 320 A 3 3 0 1 1 130.99999999995774 319.99998407846124 Z"/><path fill="#ffffff" stroke="none" paint-order="stroke fill markers" d=" M 243 320 A 3 3 0 1 1 242.99999999995774 319.99998407846124 Z"/><path fill="#ffffff" stroke="none" paint-order="stroke fill markers" d=" M 131 368 A 3 3 0 1 1 130.99999999995774 367.99998407846124 Z"/><path fill="#ffffff" stroke="none" paint-order="stroke fill markers" d=" M 243 368 A 3 3 0 1 1 242.99999999995774 367.99998407846124 Z"/><path fill="none" stroke="#00ffff" paint-order="fill stroke markers" d=" M 256 320 L 256 336" stroke-linecap="round" stroke-miterlimit="10" stroke-width="3" stroke-dasharray=""/><path fill="none" stroke="#00ffff" paint-order="fill stroke markers" d=" M 256 352 L 256 368" stroke-linecap="round" stroke-miterlimit="10" stroke-width="3" stroke-dasharray=""/><path fill="#00ffff" stroke="none" paint-order="stroke fill markers" d=" M 264 336 L 248 336 L 256 352 Z"/><path fill="none" stroke="#00ffff" paint-order="fill stroke markers" d=" M 264 352 L 248 352" stroke-linecap="round" stroke-miterlimit="10" stroke-width="3" stroke-dasharray=""/><path fill="#ffffff" stroke="none" paint-order="stroke fill markers" d=" M 259 320 A 3 3 0 1 1 258.99999999995777 319.99998407846124 Z"/><path fill="#ffffff" stroke="none" paint-order="stroke fill markers" d=" M 259 368 A 3 3 0 1 1 258.99999999995777 367.99998407846124 Z"/><path fill="none" stroke="#00ffff" paint-order="fill stroke markers" d=" M 240 320 L 256 320" stroke-linecap="round" stroke-miterlimit="10" stroke-width="3" stroke-dasharray=""/><text fill="#ffffff" stroke="none" font-family="sans-serif" font-size="12px" font-style="normal" font-weight="normal" text-decoration="normal" x="248" y="314" text-anchor="start" dominant-baseline="alphabetic"></text><path fill="#ffffff" stroke="none" paint-order="stroke fill markers" d=" M 243 320 A 3 3 0 1 1 242.99999999995774 319.99998407846124 Z"/><path fill="#ffffff" stroke="none" paint-order="stroke fill markers" d=" M 259 320 A 3 3 0 1 1 258.99999999995777 319.99998407846124 Z"/><path fill="none" stroke="#00ffff" paint-order="fill stroke markers" d=" M 240 368 L 256 368" stroke-linecap="round" stroke-miterlimit="10" stroke-width="3" stroke-dasharray=""/><text fill="#ffffff" stroke="none" font-family="sans-serif" font-size="12px" font-style="normal" font-weight="normal" text-decoration="normal" x="248" y="362" text-anchor="start" dominant-baseline="alphabetic"></text><path fill="#ffffff" stroke="none" paint-order="stroke fill markers" d=" M 243 368 A 3 3 0 1 1 242.99999999995774 367.99998407846124 Z"/><path fill="#ffffff" stroke="none" paint-order="stroke fill markers" d=" M 259 368 A 3 3 0 1 1 258.99999999995777 367.99998407846124 Z"/><path fill="none" stroke="#00ffff" paint-order="fill stroke markers" d=" M 288 368 L 288 352" stroke-linecap="round" stroke-miterlimit="10" stroke-width="3" stroke-dasharray=""/><path fill="none" stroke="#00ffff" paint-order="fill stroke markers" d=" M 288 336 L 288 320" stroke-linecap="round" stroke-miterlimit="10" stroke-width="3" stroke-dasharray=""/><path fill="#00ffff" stroke="none" paint-order="stroke fill markers" d=" M 280 352 L 296 352 L 288 336 Z"/><path fill="none" stroke="#00ffff" paint-order="fill stroke markers" d=" M 280 336 L 296 336" stroke-linecap="round" stroke-miterlimit="10" stroke-width="3" stroke-dasharray=""/><path fill="#ffffff" stroke="none" paint-order="stroke fill markers" d=" M 291 368 A 3 3 0 1 1 290.99999999995777 367.99998407846124 Z"/><path fill="#ffffff" stroke="none" paint-order="stroke fill markers" d=" M 291 320 A 3 3 0 1 1 290.99999999995777 319.99998407846124 Z"/><path fill="none" stroke="#00ffff" paint-order="fill stroke markers" d=" M 256 320 L 288 320" stroke-linecap="round" stroke-miterlimit="10" stroke-width="3" stroke-dasharray=""/><text fill="#ffffff" stroke="none" font-family="sans-serif" font-size="12px" font-style="normal" font-weight="normal" text-decoration="normal" x="272" y="314" text-anchor="start" dominant-baseline="alphabetic"></text><path fill="#ffffff" stroke="none" paint-order="stroke fill markers" d=" M 259 320 A 3 3 0 1 1 258.99999999995777 319.99998407846124 Z"/><path fill="#ffffff" stroke="none" paint-order="stroke fill markers" d=" M 291 320 A 3 3 0 1 1 290.99999999995777 319.99998407846124 Z"/><path fill="none" stroke="#00ffff" paint-order="fill stroke markers" d=" M 256 368 L 288 368" stroke-linecap="round" stroke-miterlimit="10" stroke-width="3" stroke-dasharray=""/><text fill="#ffffff" stroke="none" font-family="sans-serif" font-size="12px" font-style="normal" font-weight="normal" text-decoration="normal" x="272" y="362" text-anchor="start" dominant-baseline="alphabetic"></text><path fill="#ffffff" stroke="none" paint-order="stroke fill markers" d=" M 259 368 A 3 3 0 1 1 258.99999999995777 367.99998407846124 Z"/><path fill="#ffffff" stroke="none" paint-order="stroke fill markers" d=" M 291 368 A 3 3 0 1 1 290.99999999995777 367.99998407846124 Z"/><g><text fill="#00ffff" stroke="none" font-family="sans-serif" font-size="10px" font-style="normal" font-weight="normal" text-decoration="normal" x="303" y="346" text-anchor="start" dominant-baseline="alphabetic">1N4007</text></g><path fill="none" stroke="#00ffff" paint-order="fill stroke markers" d=" M 320 320 L 288 320" stroke-linecap="round" stroke-miterlimit="10" stroke-width="3" stroke-dasharray=""/><text fill="#ffffff" stroke="none" font-family="sans-serif" font-size="12px" font-style="normal" font-weight="normal" text-decoration="normal" x="304" y="314" text-anchor="start" dominant-baseline="alphabetic"></text><path fill="#ffffff" stroke="none" paint-order="stroke fill markers" d=" M 323 320 A 3 3 0 1 1 322.99999999995777 319.99998407846124 Z"/><path fill="#ffffff" stroke="none" paint-order="stroke fill markers" d=" M 291 320 A 3 3 0 1 1 290.99999999995777 319.99998407846124 Z"/><path fill="none" stroke="#00ffff" paint-order="fill stroke markers" d=" M 288 400 L 288 448" stroke-linecap="round" stroke-miterlimit="10" stroke-width="3" stroke-dasharray=""/><path fill="none" stroke="#00ffff" paint-order="fill stroke markers" d=" M 298 448 L 278 448" stroke-linecap="round" stroke-miterlimit="10" stroke-width="3" stroke-dasharray=""/><path fill="none" stroke="#00ffff" paint-order="fill stroke markers" d=" M 294 453 L 282 453" stroke-linecap="round" stroke-miterlimit="10" stroke-width="3" stroke-dasharray=""/><path fill="none" stroke="#00ffff" paint-order="fill stroke markers" d=" M 290 458 L 286 458" stroke-linecap="round" stroke-miterlimit="10" stroke-width="3" stroke-dasharray=""/><path fill="#ffffff" stroke="none" paint-order="stroke fill markers" d=" M 291 400 A 3 3 0 1 1 290.99999999995777 399.99998407846124 Z"/><path fill="none" stroke="#00ffff" paint-order="fill stroke markers" d=" M 288 400 L 288 368" stroke-linecap="round" stroke-miterlimit="10" stroke-width="3" stroke-dasharray=""/><text fill="#ffffff" stroke="none" font-family="sans-serif" font-size="12px" font-style="normal" font-weight="normal" text-decoration="normal" x="294" y="390" text-anchor="start" dominant-baseline="alphabetic"></text><path fill="#ffffff" stroke="none" paint-order="stroke fill markers" d=" M 291 400 A 3 3 0 1 1 290.99999999995777 399.99998407846124 Z"/><path fill="#ffffff" stroke="none" paint-order="stroke fill markers" d=" M 291 368 A 3 3 0 1 1 290.99999999995777 367.99998407846124 Z"/><rect fill="none" stroke="#808080" x="33" y="184" width="123" height="37" stroke-linecap="round" stroke-miterlimit="10" stroke-dasharray="16,6"/><path fill="none" stroke="#00ffff" paint-order="fill stroke markers" d=" M 128 320 L 128 304" stroke-linecap="round" stroke-miterlimit="10" stroke-width="3"/><text fill="#ffffff" stroke="none" font-family="sans-serif" font-size="12px" font-style="normal" font-weight="normal" text-decoration="normal" x="134" y="318" text-anchor="start" dominant-baseline="alphabetic"></text><path fill="#ffffff" stroke="none" paint-order="stroke fill markers" d=" M 131 320 A 3 3 0 1 1 130.99999999995774 319.99998407846124 Z"/><path fill="#ffffff" stroke="none" paint-order="stroke fill markers" d=" M 131 304 A 3 3 0 1 1 130.99999999995774 303.99998407846124 Z"/><path fill="none" stroke="#808080" paint-order="fill stroke markers" d=" M 128 368 L 96 368" stroke-linecap="round" stroke-miterlimit="10" stroke-width="3"/><text fill="#ffffff" stroke="none" font-family="sans-serif" font-size="12px" font-style="normal" font-weight="normal" text-decoration="normal" x="112" y="362" text-anchor="start" dominant-baseline="alphabetic"></text><g><text fill="#c0c0c0" stroke="none" font-family="sans-serif" font-size="12px" font-style="normal" font-weight="normal" text-decoration="normal" x="71" y="169" text-anchor="start" dominant-baseline="alphabetic">Phone Line</text></g><path fill="none" stroke="#00ffff" paint-order="fill stroke markers" d=" M 128 256 L 128 256" stroke-linecap="round" stroke-miterlimit="10" stroke-width="3"/><path fill="none" stroke="#00ffff" paint-order="fill stroke markers" d=" M 128 288 L 128 288" stroke-linecap="round" stroke-miterlimit="10" stroke-width="3"/><g transform="matrix(0,1,-1,0,128,256)"><path fill="none" stroke="url(#LUmMrBUcOfax)" paint-order="fill stroke markers" d=" M 0 0 L 2 6 L 6 -6 L 10 6 L 14 -6 L 18 6 L 22 -6 L 26 6 L 30 -6 L 32 0" stroke-linecap="round" stroke-miterlimit="10" stroke-width="3"/></g><text fill="#ffffff" stroke="none" font-family="sans-serif" font-size="12px" font-style="normal" font-weight="normal" text-decoration="normal" x="138" y="278" text-anchor="start" dominant-baseline="alphabetic">1k</text><path fill="#ffffff" stroke="none" paint-order="stroke fill markers" d=" M 131 256 A 3 3 0 1 1 130.99999999995774 255.99998407846124 Z"/><path fill="#ffffff" stroke="none" paint-order="stroke fill markers" d=" M 131 288 A 3 3 0 1 1 130.99999999995774 287.99998407846124 Z"/><path fill="none" stroke="#808080" paint-order="fill stroke markers" d=" M 128 256 L 128 208" stroke-linecap="round" stroke-miterlimit="10" stroke-width="3"/><text fill="#ffffff" stroke="none" font-family="sans-serif" font-size="12px" font-style="normal" font-weight="normal" text-decoration="normal" x="134" y="238" text-anchor="start" dominant-baseline="alphabetic"></text><path fill="none" stroke="#808080" paint-order="fill stroke markers" d=" M 96 368 L 80 368" stroke-linecap="round" stroke-miterlimit="10" stroke-width="3"/><text fill="#ffffff" stroke="none" font-family="sans-serif" font-size="12px" font-style="normal" font-weight="normal" text-decoration="normal" x="88" y="362" text-anchor="start" dominant-baseline="alphabetic"></text><path fill="none" stroke="#00ffff" paint-order="fill stroke markers" d=" M 128 288 L 128 304" stroke-linecap="round" stroke-miterlimit="10" stroke-width="3"/><text fill="#ffffff" stroke="none" font-family="sans-serif" font-size="12px" font-style="normal" font-weight="normal" text-decoration="normal" x="134" y="302" text-anchor="start" dominant-baseline="alphabetic"></text><path fill="#ffffff" stroke="none" paint-order="stroke fill markers" d=" M 131 288 A 3 3 0 1 1 130.99999999995774 287.99998407846124 Z"/><path fill="#ffffff" stroke="none" paint-order="stroke fill markers" d=" M 131 304 A 3 3 0 1 1 130.99999999995774 303.99998407846124 Z"/><path fill="none" stroke="#808080" paint-order="fill stroke markers" d=" M 64 240 L 64 268" stroke-linecap="round" stroke-miterlimit="10" stroke-width="3"/><path fill="none" stroke="#808080" paint-order="fill stroke markers" d=" M 76 268 L 52 268" stroke-linecap="round" stroke-miterlimit="10" stroke-width="3"/><path fill="none" stroke="#808080" paint-order="fill stroke markers" d=" M 64 304 L 64 276" stroke-linecap="round" stroke-miterlimit="10" stroke-width="3"/><path fill="none" stroke="#808080" paint-order="fill stroke markers" d=" M 76 276 L 52 276" stroke-linecap="round" stroke-miterlimit="10" stroke-width="3"/><text fill="#ffffff" stroke="none" font-family="sans-serif" font-size="12px" font-style="normal" font-weight="normal" text-decoration="normal" x="78" y="278" text-anchor="start" dominant-baseline="alphabetic">100nF</text><path fill="none" stroke="#808080" paint-order="fill stroke markers" d=" M 64 304 L 64 368" stroke-linecap="round" stroke-miterlimit="10" stroke-width="3"/><text fill="#ffffff" stroke="none" font-family="sans-serif" font-size="12px" font-style="normal" font-weight="normal" text-decoration="normal" x="70" y="342" text-anchor="start" dominant-baseline="alphabetic"></text><path fill="none" stroke="#808080" paint-order="fill stroke markers" d=" M 64 368 L 80 368" stroke-linecap="round" stroke-miterlimit="10" stroke-width="3"/><text fill="#ffffff" stroke="none" font-family="sans-serif" font-size="12px" font-style="normal" font-weight="normal" text-decoration="normal" x="72" y="362" text-anchor="start" dominant-baseline="alphabetic"></text><path fill="none" stroke="#808080" paint-order="fill stroke markers" d=" M 64 240 L 64 208" stroke-linecap="round" stroke-miterlimit="10" stroke-width="3"/><text fill="#ffffff" stroke="none" font-family="sans-serif" font-size="12px" font-style="normal" font-weight="normal" text-decoration="normal" x="70" y="230" text-anchor="start" dominant-baseline="alphabetic"></text><g><text fill="#c0c0c0" stroke="none" font-family="sans-serif" font-size="12px" font-style="normal" font-weight="normal" text-decoration="normal" x="79" y="293" text-anchor="start" dominant-baseline="alphabetic">600V</text></g><rect fill="none" stroke="#808080" x="942" y="177" width="151" height="235" stroke-linecap="round" stroke-miterlimit="10" stroke-dasharray="16,6"/><g><text fill="#c0c0c0" stroke="none" font-family="sans-serif" font-size="13px" font-style="normal" font-weight="normal" text-decoration="normal" x="980" y="170" text-anchor="start" dominant-baseline="alphabetic">Arduino Nano</text></g><path fill="none" stroke="#808080" paint-order="fill stroke markers" d=" M 688 336 L 943 336" stroke-linecap="round" stroke-miterlimit="10" stroke-width="3"/><g><text fill="#ffffff" stroke="none" font-family="sans-serif" font-size="12px" font-style="normal" font-weight="normal" text-decoration="normal" x="947" y="336" text-anchor="start" dominant-baseline="central">A0 (ADC)</text></g><path fill="none" stroke="#808080" paint-order="fill stroke markers" d=" M 896 384 L 943 384" stroke-linecap="round" stroke-miterlimit="10" stroke-width="3"/><g><text fill="#ffffff" stroke="none" font-family="sans-serif" font-size="12px" font-style="normal" font-weight="normal" text-decoration="normal" x="947" y="384" text-anchor="start" dominant-baseline="central">GND</text></g><path fill="none" stroke="#808080" paint-order="fill stroke markers" d=" M 832 384 L 832 448" stroke-linecap="round" stroke-miterlimit="10" stroke-width="3"/><path fill="none" stroke="#808080" paint-order="fill stroke markers" d=" M 842 448 L 822 448" stroke-linecap="round" stroke-miterlimit="10" stroke-width="3"/><path fill="none" stroke="#808080" paint-order="fill stroke markers" d=" M 838 453 L 826 453" stroke-linecap="round" stroke-miterlimit="10" stroke-width="3"/><path fill="none" stroke="#808080" paint-order="fill stroke markers" d=" M 834 458 L 830 458" stroke-linecap="round" stroke-miterlimit="10" stroke-width="3"/><path fill="none" stroke="#808080" paint-order="fill stroke markers" d=" M 832 384 L 896 384" stroke-linecap="round" stroke-miterlimit="10" stroke-width="3"/><text fill="#ffffff" stroke="none" font-family="sans-serif" font-size="12px" font-style="normal" font-weight="normal" text-decoration="normal" x="864" y="378" text-anchor="start" dominant-baseline="alphabetic"></text><path fill="#ffffff" stroke="none" paint-order="stroke fill markers" d=" M 67 208 A 3 3 0 1 1 66.99999999995775 207.99998407846124 Z"/><path fill="#ffffff" stroke="none" paint-order="stroke fill markers" d=" M 131 208 A 3 3 0 1 1 130.99999999995774 207.99998407846124 Z"/><path fill="#ffffff" stroke="none" paint-order="stroke fill markers" d=" M 259 320 A 3 3 0 1 1 258.99999999995777 319.99998407846124 Z"/><path fill="#ffffff" stroke="none" paint-order="stroke fill markers" d=" M 259 368 A 3 3 0 1 1 258.99999999995777 367.99998407846124 Z"/><path fill="#ffffff" stroke="none" paint-order="stroke fill markers" d=" M 291 320 A 3 3 0 1 1 290.99999999995777 319.99998407846124 Z"/><path fill="#ffffff" stroke="none" paint-order="stroke fill markers" d=" M 291 368 A 3 3 0 1 1 290.99999999995777 367.99998407846124 Z"/><path fill="#ffffff" stroke="none" paint-order="stroke fill markers" d=" M 403 320 A 3 3 0 1 1 402.99999999995777 319.99998407846124 Z"/><path fill="#ffffff" stroke="none" paint-order="stroke fill markers" d=" M 435 320 A 3 3 0 1 1 434.99999999995777 319.99998407846124 Z"/><path fill="#ffffff" stroke="none" paint-order="stroke fill markers" d=" M 531 240 A 3 3 0 1 1 530.9999999999577 239.99998407846124 Z"/><path fill="#ffffff" stroke="none" paint-order="stroke fill markers" d=" M 531 320 A 3 3 0 1 1 530.9999999999577 319.99998407846124 Z"/><path fill="#ffffff" stroke="none" paint-order="stroke fill markers" d=" M 531 352 A 3 3 0 1 1 530.9999999999577 351.99998407846124 Z"/><path fill="#ffffff" stroke="none" paint-order="stroke fill markers" d=" M 611 336 A 3 3 0 1 1 610.9999999999577 335.99998407846124 Z"/><path fill="#ffffff" stroke="none" paint-order="stroke fill markers" d=" M 691 240 A 3 3 0 1 1 690.9999999999577 239.99998407846124 Z"/><path fill="#ffffff" stroke="none" paint-order="stroke fill markers" d=" M 691 336 A 3 3 0 1 1 690.9999999999577 335.99998407846124 Z"/><path fill="#ffffff" stroke="none" paint-order="stroke fill markers" d=" M 835 240 A 3 3 0 1 1 834.9999999999577 239.99998407846124 Z"/></g></g></svg>